#!OML:ASF F:\VICON\USERDATA\INSTALL\rory3\rory3.ASF
:FULLY-SPECIFIED
:DEGREES
509
root 5.12839 16.9612 2.06952 7.32309 -14.5803 -7.37202
lowerback 21.058 0.164151 3.92361
upperback 5.64933 1.08327 1.68129
thorax -5.57089 0.46999 -0.698243
lowerneck -16.6725 -0.561916 -1.24029
upperneck 39.9139 0.441256 -2.58035
head 17.5106 -0.449745 -0.896567
rclavicle -2.43511e-014 3.24019e-014
rhumerus -37.7387 -8.01629 -18.6422
rradius 35.6958
rwrist 0.765147
rhand -17.3742 -43.4026
rfingers 7.12502
rthumb 8.8743 -73.196
lclavicle -2.43511e-014 3.24019e-014
lhumerus -38.5403 9.79478 11.2241
lradius 27.5222
lwrist 15.5184
lhand -24.2821 -29.1159
lfingers 7.12502
lthumb 2.20494 0.852414
rfemur -102.065 0.895657 26.7276
rtibia 97.0856
rfoot 48.027 0.652207
rtoes -4.67772
lfemur -28.0762 3.90657 -23.2783
ltibia 41.9151
lfoot -17.623 12.2845
ltoes 15.4207
510
root 5.13355 16.9634 2.07089 7.3348 -14.5519 -7.36462
lowerback 20.9267 0.133247 4.0118
upperback 5.70323 1.04975 1.64687
thorax -5.4428 0.456079 -0.775451
lowerneck -16.6711 -0.569859 -1.28626
upperneck 39.8381 0.386753 -2.44086
head 17.4655 -0.458276 -0.833061
rclavicle 5.33737e-014 -1.61016e-014
rhumerus -37.7777 -8.00629 -18.7143
rradius 35.8021
rwrist 0.631769
rhand -17.1676 -43.88
rfingers 7.12502
rthumb 9.07361 -73.6648
lclavicle 5.33737e-014 -1.61016e-014
lhumerus -38.4634 9.74184 11.271
lradius 27.3562
lwrist 15.3435
lhand -24.9681 -30.1841
lfingers 7.12502
lthumb 1.54242 -0.209956
rfemur -102.082 0.770194 26.7338
rtibia 97.126
rfoot 48.137 0.650026
rtoes -4.16485
lfemur -28.0528 3.8747 -23.3005
ltibia 41.8444
lfoot -17.6362 12.2303
ltoes 15.5504
511
root 5.13897 16.9629 2.07128 7.35947 -14.5756 -7.32442
lowerback 20.8346 0.150762 4.07127
upperback 5.71251 1.07771 1.62131
thorax -5.38187 0.470714 -0.842663
lowerneck -16.6546 -0.596694 -1.35137
upperneck 39.8187 0.341556 -2.37243
head 17.4494 -0.475938 -0.797963
rclavicle 3.3197e-014 -1.94809e-014
rhumerus -37.8805 -8.0335 -18.692
rradius 35.8645
rwrist 0.612578
rhand -16.9458 -44.3053
rfingers 7.12502
rthumb 9.28759 -74.0807
lclavicle 3.3197e-014 -1.94809e-014
lhumerus -38.3489 9.94685 11.1952
lradius 27.2866
lwrist 15.3296
lhand -24.7002 -30.6445
lfingers 7.12502
lthumb 1.80114 -0.672336
rfemur -102.125 0.712979 26.7161
rtibia 97.0956
rfoot 48.2897 1.17375
rtoes -5.05417
lfemur -28.0686 3.84038 -23.3633
ltibia 41.7777
lfoot -17.6223 12.2248
ltoes 15.548
512
root 5.1428 16.9608 2.07819 7.25996 -14.6479 -7.17365
lowerback 20.7967 0.180766 3.98355
upperback 5.73945 1.09234 1.57602
thorax -5.33354 0.479552 -0.844599
lowerneck -16.6341 -0.617855 -1.37432
upperneck 39.8234 0.323393 -2.38707
head 17.4467 -0.488581 -0.803889
rclavicle 9.93923e-015 -2.5842e-015
rhumerus -37.9191 -8.06786 -18.655
rradius 35.9504
rwrist 0.818333
rhand -16.758 -44.2611
rfingers 7.12502
rthumb 9.46881 -74.0283
lclavicle 9.93923e-015 -2.5842e-015
lhumerus -38.3612 9.90996 11.2128
lradius 27.4293
lwrist 15.5898
lhand -24.7598 -29.1216
lfingers 7.12502
lthumb 1.74351 0.851041
rfemur -102.103 0.656601 26.5808
rtibia 97.1133
rfoot 48.4282 1.57256
rtoes -5.80558
lfemur -27.9015 3.8941 -23.5562
ltibia 41.7191
lfoot -17.6382 12.2395
ltoes 15.6306
513
root 5.14446 16.9574 2.08405 7.1409 -14.6504 -6.99885
lowerback 20.75 0.165753 3.82474
upperback 5.78962 1.03277 1.52817
thorax -5.26012 0.453316 -0.790475
lowerneck -16.6075 -0.596026 -1.36667
upperneck 39.7947 0.343935 -2.36867
head 17.4236 -0.47667 -0.792216
rclavicle 1.90833e-014 2.98177e-015
rhumerus -37.842 -8.03526 -18.6948
rradius 35.9973
rwrist 0.996136
rhand -17.2459 -43.8685
rfingers 7.12502
rthumb 8.99809 -73.6566
lclavicle 1.90833e-014 2.98177e-015
lhumerus -38.4202 9.73758 11.2546
lradius 27.5904
lwrist 16.0094
lhand -26.0706 -24.8008
lfingers 7.12502
lthumb 0.477571 5.1784
rfemur -102.118 0.529382 26.3987
rtibia 97.2201
rfoot 48.3879 1.53409
rtoes -5.91757
lfemur -27.7335 3.95787 -23.7583
ltibia 41.6568
lfoot -17.6977 12.1742
ltoes 15.8489
514
root 5.14621 16.9544 2.08439 7.12866 -14.6329 -7.0164
lowerback 20.6947 0.127563 3.82752
upperback 5.80858 0.980152 1.52705
thorax -5.21293 0.42874 -0.779764
lowerneck -16.5612 -0.531837 -1.27067
upperneck 39.7673 0.43683 -2.44781
head 17.3976 -0.436042 -0.827104
rclavicle 2.16675e-014 -1.63003e-014
rhumerus -37.7331 -7.97758 -18.7567
rradius 35.9151
rwrist 0.996386
rhand -17.9928 -43.77
rfingers 7.12502
rthumb 8.27726 -73.5878
lclavicle 2.16675e-014 -1.63003e-014
lhumerus -38.4663 9.71242 11.1488
lradius 27.7356
lwrist 16.4779
lhand -25.1062 -25.6003
lfingers 7.12502
lthumb 1.40902 4.37482
rfemur -102.12 0.460711 26.4015
rtibia 97.2373
rfoot 48.1955 1.69936
rtoes -6.36359
lfemur -27.7137 4.07073 -23.7486
ltibia 41.6218
lfoot -17.7643 12.0125
ltoes 15.8204
